<svg xmlns="http://www.w3.org/2000/svg" width="760" height="260" viewBox="0 0 760 260">
<rect width="100%" height="100%" fill="white"/>
<style>text{font-family:Arial,sans-serif;fill:#111}.t{font-size:18px;font-weight:bold}.l{font-size:14px}.s{font-size:12px}</style>
<text x="20" y="28" class="t">Evidence-set sensitivity of moisture-breadth association</text>
<line x1="260.0" y1="55" x2="260.0" y2="205" stroke="#ddd"/><text x="260.0" y="225" text-anchor="middle" class="s">0.1</text>
<line x1="377.7" y1="55" x2="377.7" y2="205" stroke="#ddd"/><text x="377.7" y="225" text-anchor="middle" class="s">0.2</text>
<line x1="533.4" y1="55" x2="533.4" y2="205" stroke="#ddd"/><text x="533.4" y="225" text-anchor="middle" class="s">0.5</text>
<line x1="651.1" y1="55" x2="651.1" y2="205" stroke="#ddd"/><text x="651.1" y="225" text-anchor="middle" class="s">1</text>
<line x1="651.1" y1="50" x2="651.1" y2="205" stroke="#555" stroke-dasharray="5 4"/>
<text x="20" y="95" class="l">Audited baseline-unambiguous</text>
<line x1="363.7" y1="90" x2="648.5" y2="90" stroke="#111" stroke-width="2"/>
<line x1="363.7" y1="84" x2="363.7" y2="96" stroke="#111"/>
<line x1="648.5" y1="84" x2="648.5" y2="96" stroke="#111"/>
<circle cx="506.1" cy="90" r="5" fill="#111"/>
<text x="725" y="95" text-anchor="end" class="s">OR 0.426 (0.184–0.985)</text>
<text x="20" y="170" class="l">All classified evidence</text>
<line x1="442.0" y1="165" x2="665.0" y2="165" stroke="#111" stroke-width="2"/>
<line x1="442.0" y1="159" x2="442.0" y2="171" stroke="#111"/>
<line x1="665.0" y1="159" x2="665.0" y2="171" stroke="#111"/>
<circle cx="553.5" cy="165" r="5" fill="#111"/>
<text x="725" y="170" text-anchor="end" class="s">OR 0.563 (0.292–1.085)</text>
<text x="490.0" y="252" text-anchor="middle" class="s">Odds ratio (log scale; values below 1 indicate narrower breadth in among-population cases)</text>
</svg>