<svg xmlns="http://www.w3.org/2000/svg" width="820" height="680" viewBox="0 0 820 680">
<rect width="100%" height="100%" fill="white"/>
<style>text{font-family:Arial,sans-serif;fill:#111}.t{font-size:18px;font-weight:bold}.l{font-size:12px}.s{font-size:11px}</style>
<text x="20" y="27" class="t">Leave-one-family-out stability: audited baseline moisture model</text>
<line x1="220.0" y1="48" x2="220.0" y2="650" stroke="#e4e4e4"/><text x="220.0" y="670" text-anchor="middle" class="s">0.2</text>
<line x1="350.8" y1="48" x2="350.8" y2="650" stroke="#e4e4e4"/><text x="350.8" y="670" text-anchor="middle" class="s">0.3</text>
<line x1="443.6" y1="48" x2="443.6" y2="650" stroke="#e4e4e4"/><text x="443.6" y="670" text-anchor="middle" class="s">0.4</text>
<line x1="515.6" y1="48" x2="515.6" y2="650" stroke="#e4e4e4"/><text x="515.6" y="670" text-anchor="middle" class="s">0.5</text>
<line x1="624.2" y1="48" x2="624.2" y2="650" stroke="#e4e4e4"/><text x="624.2" y="670" text-anchor="middle" class="s">0.7</text>
<line x1="739.3" y1="48" x2="739.3" y2="650" stroke="#e4e4e4"/><text x="739.3" y="670" text-anchor="middle" class="s">1</text>
<line x1="739.3" y1="45" x2="739.3" y2="650" stroke="#555" stroke-dasharray="5 4"/>
<line x1="459.2" y1="45" x2="459.2" y2="650" stroke="#777"/>
<text x="15" y="62" class="l">Brassicaceae</text><circle cx="368.9" cy="58" r="4" fill="#111"/><text x="810" y="62" text-anchor="end" class="s">0.317</text>
<text x="15" y="86" class="l">Plantaginaceae</text><circle cx="402.8" cy="82" r="4" fill="#111"/><text x="810" y="86" text-anchor="end" class="s">0.353</text>
<text x="15" y="110" class="l">Papaveraceae</text><circle cx="419.4" cy="106" r="4" fill="#111"/><text x="810" y="110" text-anchor="end" class="s">0.371</text>
<text x="15" y="134" class="l">Thymelaeaceae</text><circle cx="424.8" cy="130" r="4" fill="#111"/><text x="810" y="134" text-anchor="end" class="s">0.378</text>
<text x="15" y="158" class="l">Polemoniaceae</text><circle cx="435.8" cy="154" r="4" fill="#111"/><text x="810" y="158" text-anchor="end" class="s">0.391</text>
<text x="15" y="182" class="l">Cactaceae</text><circle cx="437.6" cy="178" r="4" fill="#111"/><text x="810" y="182" text-anchor="end" class="s">0.393</text>
<text x="15" y="206" class="l">Ranunculaceae</text><circle cx="438.4" cy="202" r="4" fill="#111"/><text x="810" y="206" text-anchor="end" class="s">0.394</text>
<text x="15" y="230" class="l">Primulaceae</text><circle cx="447.2" cy="226" r="4" fill="#111"/><text x="810" y="230" text-anchor="end" class="s">0.405</text>
<text x="15" y="254" class="l">Calceolariaceae</text><circle cx="449.0" cy="250" r="4" fill="#111"/><text x="810" y="254" text-anchor="end" class="s">0.407</text>
<text x="15" y="278" class="l">Campanulaceae</text><circle cx="454.7" cy="274" r="4" fill="#111"/><text x="810" y="278" text-anchor="end" class="s">0.414</text>
<text x="15" y="302" class="l">Orobanchaceae</text><circle cx="458.1" cy="298" r="4" fill="#111"/><text x="810" y="302" text-anchor="end" class="s">0.419</text>
<text x="15" y="326" class="l">Schisandraceae</text><circle cx="462.1" cy="322" r="4" fill="#111"/><text x="810" y="326" text-anchor="end" class="s">0.424</text>
<text x="15" y="350" class="l">Liliaceae</text><circle cx="463.0" cy="346" r="4" fill="#111"/><text x="810" y="350" text-anchor="end" class="s">0.425</text>
<text x="15" y="374" class="l">Convolvulaceae</text><circle cx="468.1" cy="370" r="4" fill="#111"/><text x="810" y="374" text-anchor="end" class="s">0.432</text>
<text x="15" y="398" class="l">Iridaceae</text><circle cx="468.6" cy="394" r="4" fill="#111"/><text x="810" y="398" text-anchor="end" class="s">0.432</text>
<text x="15" y="422" class="l">Asparagaceae</text><circle cx="471.5" cy="418" r="4" fill="#111"/><text x="810" y="422" text-anchor="end" class="s">0.436</text>
<text x="15" y="446" class="l">Orchidaceae</text><circle cx="475.9" cy="442" r="4" fill="#111"/><text x="810" y="446" text-anchor="end" class="s">0.442</text>
<text x="15" y="470" class="l">Asteraceae</text><circle cx="477.9" cy="466" r="4" fill="#111"/><text x="810" y="470" text-anchor="end" class="s">0.445</text>
<text x="15" y="494" class="l">Fabaceae</text><circle cx="478.1" cy="490" r="4" fill="#111"/><text x="810" y="494" text-anchor="end" class="s">0.445</text>
<text x="15" y="518" class="l">Phrymaceae</text><circle cx="481.2" cy="514" r="4" fill="#111"/><text x="810" y="518" text-anchor="end" class="s">0.449</text>
<text x="15" y="542" class="l">Caryophyllaceae</text><circle cx="486.0" cy="538" r="4" fill="#111"/><text x="810" y="542" text-anchor="end" class="s">0.456</text>
<text x="15" y="566" class="l">Nyctaginaceae</text><circle cx="489.3" cy="562" r="4" fill="#111"/><text x="810" y="566" text-anchor="end" class="s">0.461</text>
<text x="15" y="590" class="l">Ericaceae</text><circle cx="490.2" cy="586" r="4" fill="#111"/><text x="810" y="590" text-anchor="end" class="s">0.462</text>
<text x="15" y="614" class="l">Heliconiaceae</text><circle cx="500.3" cy="610" r="4" fill="#111"/><text x="810" y="614" text-anchor="end" class="s">0.477</text>
<text x="15" y="638" class="l">Verbenaceae</text><circle cx="502.8" cy="634" r="4" fill="#111"/><text x="810" y="638" text-anchor="end" class="s">0.481</text>
</svg>